<svg width="47" height="56" viewBox="0 0 47 56" fill="none" xmlns="http://www.w3.org/2000/svg">
<path fill-rule="evenodd" clip-rule="evenodd" d="M37.726 17.8612H30.1721V22.9159H37.726C39.9732 22.9159 41.7162 24.2091 41.7162 25.3228V47.7379C41.7162 48.8508 39.9732 50.1456 37.726 50.1456H9.17146C6.92496 50.1456 5.182 48.8508 5.182 47.7379V25.3253C5.182 24.2116 6.92496 22.9176 9.17146 22.9176H16.7245V17.8629H9.17146C4.42072 17.8629 0.699463 21.1409 0.699463 25.3253V47.7387C0.699463 51.924 4.42072 55.2003 9.17146 55.2003H37.7275C42.4767 55.2003 46.1995 51.9224 46.1995 47.7387V25.3253C46.1987 21.1392 42.4775 17.8612 37.726 17.8612Z" fill="white"/>
<path fill-rule="evenodd" clip-rule="evenodd" d="M30.6947 13.3508C30.0536 13.3508 29.4133 13.0979 28.9241 12.5938L25.7884 9.36366V20.5698V25.7311V35.6194C25.7884 37.0439 24.6673 38.2001 23.284 38.2001C21.9006 38.2001 20.7795 37.0439 20.7795 35.6194V25.732V20.5707V9.1899L17.4744 12.5947C16.9852 13.0988 16.344 13.3517 15.7037 13.3517C15.0634 13.3517 14.4222 13.0988 13.933 12.5947C12.9546 11.5882 12.9546 9.95378 13.933 8.94646L21.4106 1.24143C21.8998 0.737343 22.541 0.487019 23.1804 0.487019C23.1871 0.487019 23.1938 0.487019 23.1996 0.487019C23.2055 0.487019 23.2122 0.487019 23.218 0.487019C23.8591 0.487019 24.4986 0.737343 24.9878 1.24143L32.4654 8.94646C33.4438 9.95378 33.4438 11.5882 32.4654 12.5947C31.9762 13.0979 31.3367 13.3508 30.6947 13.3508Z" fill="white"/>
</svg>
