<svg width="23" height="31" viewBox="0 0 23 31" fill="none" xmlns="http://www.w3.org/2000/svg">
<path fill-rule="evenodd" clip-rule="evenodd" d="M22.0198 7.62134V4.98462C22.0198 3.53073 20.8369 2.3479 19.3831 2.3479H14.8451C14.4848 1.27042 13.4885 0.4729 12.3518 0.4729H10.594C9.45733 0.4729 8.46101 1.27042 8.10065 2.3479H3.56274C2.10886 2.3479 0.926025 3.53073 0.926025 4.98462V7.62134H2.68384V9.53032C1.66085 9.89314 0.926025 10.8701 0.926025 12.0159V27.8362C0.926025 29.2901 2.10886 30.4729 3.56274 30.4729H19.3831C20.8369 30.4729 22.0198 29.2901 22.0198 27.8362V12.0159C22.0198 10.8701 21.285 9.89314 20.262 9.53032V7.62134H22.0198ZM2.68384 4.98462C2.68384 4.49999 3.07812 4.10571 3.56274 4.10571H9.71509V3.22681C9.71509 2.71481 10.1422 2.23071 10.594 2.23071H12.3518C12.8036 2.23071 13.2307 2.71481 13.2307 3.22681V4.10571H19.3831C19.8677 4.10571 20.262 4.49999 20.262 4.98462V5.86353H2.68384V4.98462ZM20.262 27.8362C20.262 28.3208 19.8677 28.7151 19.3831 28.7151H3.56274C3.07812 28.7151 2.68384 28.3208 2.68384 27.8362V12.0159C2.68384 11.5312 3.07812 11.137 3.56274 11.137H19.3831C19.8677 11.137 20.262 11.5312 20.262 12.0159V27.8362ZM18.5042 9.37915H4.44165V7.62134H18.5042V9.37915Z" fill="white"/>
<path fill-rule="evenodd" clip-rule="evenodd" d="M16.8978 15.3394L16.1234 15.995C15.8071 16.2629 15.404 16.4104 14.9885 16.4104C14.0193 16.4104 13.2307 15.6218 13.2307 14.6526C13.2307 14.4705 13.2583 14.2915 13.3125 14.1205L13.6197 13.1517L12.6167 12.9874C12.2411 12.9259 11.8562 12.8948 11.4729 12.8948C7.59587 12.8948 4.44165 16.049 4.44165 19.926C4.44165 23.8031 7.59587 26.9573 11.4729 26.9573C15.3499 26.9573 18.5042 23.8031 18.5042 19.926C18.5042 18.6038 18.1349 17.3151 17.4363 16.1993L16.8978 15.3394ZM11.4729 25.1995C8.56513 25.1995 6.19946 22.8338 6.19946 19.926C6.19946 17.0183 8.56513 14.6526 11.4729 14.6526C11.4729 16.5911 13.05 18.1682 14.9885 18.1682C15.4562 18.1682 15.9162 18.0746 16.3419 17.8972C16.608 18.5359 16.7463 19.2245 16.7463 19.926C16.7463 22.8338 14.3807 25.1995 11.4729 25.1995Z" fill="white"/>
<rect x="9.71509" y="21.6838" width="1.75781" height="1.75781" fill="white"/>
<rect x="13.2307" y="19.926" width="1.75781" height="1.75781" fill="white"/>
<rect x="7.95728" y="18.1682" width="1.75781" height="1.75781" fill="white"/>
</svg>
