<svg width="611" height="59" viewBox="0 0 611 59" fill="none" xmlns="http://www.w3.org/2000/svg">
<g filter="url(#filter0_ii)">
<path d="M47.0984 39.2548C46.6557 45.3746 44.3901 50.1923 40.3016 53.7079C36.2391 57.2236 30.8745 58.9814 24.2078 58.9814C16.9162 58.9814 11.174 56.5335 6.98126 51.6376C2.8146 46.7158 0.731262 39.971 0.731262 31.4033V27.9267C0.731262 22.4579 1.6948 17.6402 3.62189 13.4736C5.54897 9.30691 8.29637 6.1168 11.8641 3.90326C15.4578 1.66368 19.6245 0.543884 24.3641 0.543884C30.9266 0.543884 36.213 2.3017 40.2234 5.81732C44.2339 9.33295 46.5516 14.2678 47.1766 20.622H35.4578C35.1714 16.9501 34.1427 14.2939 32.3719 12.6533C30.6271 10.9866 27.9578 10.1533 24.3641 10.1533C20.4578 10.1533 17.5281 11.5595 15.575 14.372C13.6479 17.1585 12.6583 21.4944 12.6063 27.3798V31.6767C12.6063 37.8225 13.5307 42.3147 15.3797 45.1533C17.2547 47.9918 20.1974 49.4111 24.2078 49.4111C27.8276 49.4111 30.5229 48.5908 32.2938 46.9501C34.0906 45.2835 35.1193 42.7184 35.3797 39.2548H47.0984ZM102.513 31.0517C102.513 36.6507 101.523 41.5595 99.5438 45.7783C97.5646 49.997 94.7261 53.2522 91.0281 55.5439C87.3563 57.8356 83.1375 58.9814 78.3719 58.9814C73.6583 58.9814 69.4526 57.8486 65.7547 55.5829C62.0568 53.3173 59.1922 50.0882 57.1609 45.8954C55.1297 41.6767 54.1011 36.8329 54.075 31.3642V28.5517C54.075 22.9527 55.0776 18.0309 57.0828 13.7861C59.1141 9.51524 61.9656 6.24701 65.6375 3.98138C69.3354 1.68972 73.5542 0.543884 78.2938 0.543884C83.0333 0.543884 87.2391 1.68972 90.9109 3.98138C94.6089 6.24701 97.4604 9.51524 99.4656 13.7861C101.497 18.0309 102.513 22.9397 102.513 28.5126V31.0517ZM90.6375 28.4736C90.6375 22.51 89.5698 17.9788 87.4344 14.8798C85.299 11.7809 82.2521 10.2314 78.2938 10.2314C74.3615 10.2314 71.3276 11.7678 69.1922 14.8408C67.0568 17.8876 65.9761 22.3668 65.95 28.2783V31.0517C65.95 36.859 67.0177 41.3642 69.1531 44.5673C71.2886 47.7704 74.3615 49.372 78.3719 49.372C82.3042 49.372 85.325 47.8356 87.4344 44.7626C89.5438 41.6637 90.6115 37.1585 90.6375 31.247V28.4736ZM158.747 31.0517C158.747 36.6507 157.757 41.5595 155.778 45.7783C153.799 49.997 150.96 53.2522 147.263 55.5439C143.591 57.8356 139.372 58.9814 134.606 58.9814C129.893 58.9814 125.687 57.8486 121.989 55.5829C118.291 53.3173 115.427 50.0882 113.395 45.8954C111.364 41.6767 110.335 36.8329 110.309 31.3642V28.5517C110.309 22.9527 111.312 18.0309 113.317 13.7861C115.348 9.51524 118.2 6.24701 121.872 3.98138C125.57 1.68972 129.789 0.543884 134.528 0.543884C139.268 0.543884 143.473 1.68972 147.145 3.98138C150.843 6.24701 153.695 9.51524 155.7 13.7861C157.731 18.0309 158.747 22.9397 158.747 28.5126V31.0517ZM146.872 28.4736C146.872 22.51 145.804 17.9788 143.669 14.8798C141.533 11.7809 138.486 10.2314 134.528 10.2314C130.596 10.2314 127.562 11.7678 125.427 14.8408C123.291 17.8876 122.21 22.3668 122.184 28.2783V31.0517C122.184 36.859 123.252 41.3642 125.388 44.5673C127.523 47.7704 130.596 49.372 134.606 49.372C138.539 49.372 141.559 47.8356 143.669 44.7626C145.778 41.6637 146.846 37.1585 146.872 31.247V28.4736ZM186.075 35.3876L179.981 41.9501V58.2001H168.263V1.32513H179.981V27.1064L185.138 20.0361L199.63 1.32513H214.044L193.848 26.5986L214.63 58.2001H200.684L186.075 35.3876ZM232.505 58.2001H220.786V1.32513H232.505V58.2001ZM278.622 33.5517H256.122V48.7861H282.528V58.2001H244.403V1.32513H282.45V10.8173H256.122V24.372H278.622V33.5517ZM355.973 39.2548C355.531 45.3746 353.265 50.1923 349.177 53.7079C345.114 57.2236 339.749 58.9814 333.083 58.9814C325.791 58.9814 320.049 56.5335 315.856 51.6376C311.69 46.7158 309.606 39.971 309.606 31.4033V27.9267C309.606 22.4579 310.57 17.6402 312.497 13.4736C314.424 9.30691 317.171 6.1168 320.739 3.90326C324.333 1.66368 328.499 0.543884 333.239 0.543884C339.802 0.543884 345.088 2.3017 349.098 5.81732C353.109 9.33295 355.427 14.2678 356.052 20.622H344.333C344.046 16.9501 343.018 14.2939 341.247 12.6533C339.502 10.9866 336.833 10.1533 333.239 10.1533C329.333 10.1533 326.403 11.5595 324.45 14.372C322.523 17.1585 321.533 21.4944 321.481 27.3798V31.6767C321.481 37.8225 322.406 42.3147 324.255 45.1533C326.13 47.9918 329.072 49.4111 333.083 49.4111C336.703 49.4111 339.398 48.5908 341.169 46.9501C342.966 45.2835 343.994 42.7184 344.255 39.2548H355.973ZM407.716 1.32513V38.7861C407.716 45.01 405.763 49.9319 401.856 53.5517C397.976 57.1715 392.664 58.9814 385.919 58.9814C379.278 58.9814 374.005 57.2236 370.098 53.7079C366.192 50.1923 364.2 45.3616 364.122 39.2158V1.32513H375.841V38.8642C375.841 42.5882 376.726 45.3095 378.497 47.0283C380.294 48.721 382.768 49.5673 385.919 49.5673C392.507 49.5673 395.854 46.1038 395.958 39.1767V1.32513H407.716ZM461.138 10.8173H443.716V58.2001H431.997V10.8173H414.809V1.32513H461.138V10.8173ZM512.294 10.8173H494.872V58.2001H483.153V10.8173H465.966V1.32513H512.294V10.8173ZM554.231 33.5517H531.731V48.7861H558.138V58.2001H520.013V1.32513H558.059V10.8173H531.731V24.372H554.231V33.5517ZM587.067 37.3798H577.731V58.2001H566.013V1.32513H587.145C593.864 1.32513 599.046 2.82253 602.692 5.81732C606.338 8.81211 608.161 13.0439 608.161 18.5126C608.161 22.3928 607.315 25.635 605.622 28.2392C603.955 30.8173 601.416 32.8746 598.005 34.4111L610.309 57.6533V58.2001H597.731L587.067 37.3798ZM577.731 27.8876H587.184C590.127 27.8876 592.406 27.1454 594.02 25.6611C595.635 24.1507 596.442 22.0803 596.442 19.4501C596.442 16.7678 595.674 14.6585 594.138 13.122C592.627 11.5856 590.296 10.8173 587.145 10.8173H577.731V27.8876Z" fill="white"/>
</g>
<defs>
<filter id="filter0_ii" x="0.731262" y="0.543884" width="609.578" height="63.4375" filterUnits="userSpaceOnUse" color-interpolation-filters="sRGB">
<feFlood flood-opacity="0" result="BackgroundImageFix"/>
<feBlend mode="normal" in="SourceGraphic" in2="BackgroundImageFix" result="shape"/>
<feColorMatrix in="SourceAlpha" type="matrix" values="0 0 0 0 0 0 0 0 0 0 0 0 0 0 0 0 0 0 127 0" result="hardAlpha"/>
<feOffset dy="5"/>
<feGaussianBlur stdDeviation="2.5"/>
<feComposite in2="hardAlpha" operator="arithmetic" k2="-1" k3="1"/>
<feColorMatrix type="matrix" values="0 0 0 0 0.392157 0 0 0 0 0.392157 0 0 0 0 0.392157 0 0 0 0.498039 0"/>
<feBlend mode="normal" in2="shape" result="effect1_innerShadow"/>
<feColorMatrix in="SourceAlpha" type="matrix" values="0 0 0 0 0 0 0 0 0 0 0 0 0 0 0 0 0 0 127 0" result="hardAlpha"/>
<feOffset dy="1"/>
<feGaussianBlur stdDeviation="2.5"/>
<feComposite in2="hardAlpha" operator="arithmetic" k2="-1" k3="1"/>
<feColorMatrix type="matrix" values="0 0 0 0 0.392157 0 0 0 0 0.392157 0 0 0 0 0.392157 0 0 0 0.498039 0"/>
<feBlend mode="normal" in2="effect1_innerShadow" result="effect2_innerShadow"/>
</filter>
</defs>
</svg>
